<svg xmlns:xlink="http://www.w3.org/1999/xlink" xmlns="http://www.w3.org/2000/svg" width="107" height="109" viewBox="0 0 107 109" fill="none">
<path d="M102.803 63.8455H101.171V49.1529C101.171 46.8269 100.014 44.7674 98.2456 43.516V41.5154C98.2456 38.6135 95.8849 36.2528 92.9829 36.2528H91.765L96.425 29.4147C97.9869 27.1228 97.393 23.9871 95.101 22.4249L63.4801 0.876116C62.3699 0.11929 61.0317 -0.160023 59.7109 0.0905493C58.3908 0.340696 57.2469 1.08986 56.4903 2.2003L29.1975 42.2499H21.6026L23.435 23.7008C23.4556 23.4917 23.5915 23.3105 23.7809 23.2392C26.1417 22.3491 28.1876 20.6869 29.5415 18.5588C29.6482 18.3913 29.8494 18.2955 30.0576 18.3165L41.9699 19.4934C42.824 19.5762 43.5838 18.9541 43.6681 18.1005C43.7524 17.2468 43.1289 16.4865 42.2752 16.4022L30.3629 15.2254C28.9801 15.09 27.6615 15.7272 26.9206 16.8912C25.9252 18.456 24.4209 19.678 22.6852 20.3324C21.3787 20.825 20.4815 21.9985 20.3436 23.3953L18.4812 42.2497H16.5007L19.3986 12.9125C19.5029 11.8566 20.4454 11.0808 21.5026 11.1866L45.575 13.5646C46.4287 13.647 47.1889 13.0254 47.2732 12.1717C47.3575 11.318 46.7339 10.5577 45.8803 10.4734L21.8079 8.09545C19.0479 7.82316 16.5799 9.84669 16.3072 12.607L13.9714 36.2528H9.99349C7.09179 36.2528 4.73084 38.6135 4.73084 41.5154V42.8801C2.35689 43.9731 0.70401 46.3728 0.70401 49.1529V102.098C0.70401 105.904 3.80072 109.001 7.60741 109.001H94.2682C98.0746 109.001 101.171 105.904 101.171 102.098V87.4053H102.803C104.728 87.4053 106.294 85.8391 106.294 83.9139V67.3372C106.294 65.4118 104.728 63.8455 102.803 63.8455ZM92.9829 39.3593C94.1721 39.3591 95.1393 40.3265 95.1393 41.5157V42.307C94.8536 42.2708 94.5634 42.2501 94.2682 42.2501H87.6781L89.648 39.3593H92.9829ZM59.0571 3.94941C59.3466 3.52469 59.7841 3.23814 60.2891 3.14234C60.4098 3.11956 60.531 3.10806 60.6512 3.10806C61.0338 3.10806 61.4076 3.2226 61.7308 3.44273L93.3517 24.9915C94.2284 25.5891 94.4557 26.7885 93.8583 27.6652L83.9193 42.2495H81.5341L86.407 35.0991C87.1972 33.9395 87.2624 32.4638 86.5764 31.2475C85.6648 29.6317 85.2953 27.7291 85.5358 25.8899C85.7146 24.5217 85.1126 23.186 83.9647 22.4038L67.5725 11.233C66.4244 10.4507 64.961 10.3789 63.7531 11.0459C62.1298 11.9422 60.2238 12.2941 58.3865 12.0369C57.024 11.8457 55.6421 12.461 54.8636 13.6031L35.3417 42.2497H32.9565L59.0571 3.94941ZM59.7411 30.3246C52.9774 30.3246 47.4252 35.5986 46.9728 42.2497H39.1003L57.43 15.3525C57.5341 15.1994 57.707 15.1083 57.8843 15.1083C57.9079 15.1083 57.9316 15.11 57.9552 15.1132C60.4541 15.4627 63.046 14.9846 65.2542 13.7654C65.4279 13.6691 65.651 13.683 65.823 13.8001L82.2154 24.9711C82.387 25.0882 82.4813 25.2908 82.4557 25.4876C82.1285 27.9888 82.6313 30.5763 83.871 32.7737C83.9704 32.9502 83.9583 33.1763 83.8404 33.3498L77.7755 42.2495H72.5101C72.0573 35.5986 66.5053 30.3246 59.7411 30.3246ZM69.3953 42.2499H50.0872C50.5321 37.3132 54.6907 33.4311 59.7411 33.4311C64.7918 33.4309 68.9506 37.3132 69.3953 42.2499ZM7.83712 41.5154C7.83712 40.3262 8.80429 39.3589 9.99349 39.3589H13.6646L13.3791 42.2497H7.83712V41.5154ZM3.8103 49.1529C3.8103 47.0593 5.51364 45.356 7.60741 45.356H94.2682C96.3619 45.356 98.0651 47.0593 98.0651 49.1529V53.4627H3.8103V49.1529ZM98.0651 102.098C98.0651 104.191 96.3619 105.895 94.2682 105.895H7.60741C5.51364 105.895 3.8103 104.191 3.8103 102.098V97.788H12.1858C13.0438 97.788 13.7389 97.0927 13.7389 96.2349C13.7389 95.3772 13.0436 94.6819 12.1858 94.6819H3.8103V56.5689H98.0651V63.8455H83.2977C78.6448 63.8455 74.6141 66.5578 72.7013 70.4837C72.6949 70.4969 72.6877 70.5097 72.6811 70.5229C72.6649 70.5563 72.6508 70.591 72.6351 70.6246C72.4073 71.1085 72.2093 71.6095 72.0481 72.1264C72.0477 72.1278 72.0473 72.1291 72.0469 72.1306C71.703 73.2353 71.5176 74.409 71.5176 75.6254C71.5176 82.1209 76.802 87.4053 83.2973 87.4053H98.0649V94.6819H22.1308C21.2729 94.6819 20.5778 95.3772 20.5778 96.2349C20.5778 97.0927 21.2731 97.788 22.1308 97.788H98.0651V102.098ZM103.188 83.9137C103.188 84.1261 103.015 84.299 102.803 84.299H83.2979C80.0098 84.299 77.143 82.4599 75.6726 79.7564C75.6057 79.6335 75.5419 79.5088 75.4808 79.3825C75.3588 79.1298 75.2487 78.8703 75.1514 78.6046C74.8104 77.6751 74.6243 76.6716 74.6243 75.6254C74.6243 74.5793 74.8106 73.5757 75.1514 72.6462C75.2489 72.3808 75.359 72.1212 75.4808 71.8683C75.5419 71.7421 75.6057 71.6173 75.6726 71.4945C77.143 68.791 80.0098 66.9518 83.2979 66.9518H102.803C103.015 66.9518 103.188 67.1247 103.188 67.3372V83.9137Z" fill="#E0C492"/>
<path d="M83.6616 69.3239C80.1868 69.3239 77.36 72.1509 77.36 75.6255C77.36 79.1001 80.1868 81.9268 83.6616 81.9268C87.1364 81.9268 89.9632 79.1001 89.9632 75.6255C89.9632 72.1509 87.1364 69.3239 83.6616 69.3239ZM83.6616 78.8205C81.8997 78.8205 80.4663 77.3871 80.4663 75.6255C80.4663 73.8638 81.8997 72.4302 83.6616 72.4302C85.4235 72.4302 86.8569 73.8636 86.8569 75.6255C86.8569 77.3873 85.4235 78.8205 83.6616 78.8205Z" fill="#E0C492"/>
</svg>