<svg xmlns:xlink="http://www.w3.org/1999/xlink" xmlns="http://www.w3.org/2000/svg" width="109" height="99" viewBox="0 0 109 99" fill="none">
<path d="M10.6436 56.1213C9.46857 56.1213 8.51472 57.0752 8.51472 58.2502C8.51472 59.4253 9.46857 60.3791 10.6436 60.3791C11.8187 60.3791 12.7725 59.4253 12.7725 58.2502C12.7725 57.0752 11.8187 56.1213 10.6436 56.1213Z" fill="#E0C492"/>
<path d="M97.8474 63.5034L77.7774 70.4033C77.8664 69.9093 77.9163 69.4053 77.9163 68.8939C77.9163 64.1986 74.0967 60.3782 69.4007 60.3782H55.6143C55.2484 60.3782 54.8875 60.2843 54.569 60.1046L43.3215 53.7786C41.0978 52.5254 38.5706 51.8626 36.0134 51.8626H20.9214C20.0432 49.3852 17.6765 47.6056 14.9014 47.6056H2.12793C0.952043 47.6056 -0.000976562 48.5586 -0.000976562 49.7345V88.0541C-0.000976562 89.23 0.952043 90.183 2.12793 90.183H14.9014C17.6133 90.183 19.9384 88.479 20.8615 86.0857C23.2715 86.385 26.0599 87.0977 27.8121 88.1489L38.9456 94.8292C43.1635 97.3606 47.9926 98.6986 52.9124 98.6986C56.811 98.6986 60.5881 97.8803 64.1399 96.267L103.875 78.7709C108.276 76.9854 110.449 71.7055 107.933 67.0519C106.083 63.6273 101.749 62.1038 97.8474 63.5034ZM17.0303 83.8062C17.0253 84.9755 16.0715 85.9252 14.9014 85.9252H4.25684V51.8634H14.9014C16.0748 51.8634 17.0303 52.8181 17.0303 53.9923V83.8062ZM102.257 74.8332C102.235 74.8415 102.212 74.8515 102.19 74.8607C102.19 74.8607 62.3961 92.3826 62.3886 92.3859C59.3906 93.7498 56.2023 94.4408 52.9124 94.4408C48.7644 94.4408 44.6928 93.3132 41.1369 91.1784L30.0025 84.4981C27.6191 83.0686 24.2062 82.1971 21.2881 81.8478V56.1213H36.0134C37.8396 56.1213 39.6442 56.5936 41.2334 57.4892L52.4808 63.8153C53.4338 64.3525 54.5183 64.6369 55.6143 64.6369H69.4007C71.7483 64.6369 73.6585 66.5463 73.6585 68.8947C73.6585 71.234 71.7475 73.1525 69.4007 73.1525H47.759C46.5831 73.1525 45.6301 74.1056 45.6301 75.2814C45.6301 76.4565 46.5831 77.4095 47.759 77.4095H69.4007C70.7969 77.4095 72.1716 77.0628 73.3915 76.4124C73.3915 76.4124 99.267 67.5176 99.2769 67.5143C101.185 66.8257 103.342 67.5109 104.188 69.076C105.456 71.422 104.407 73.9725 102.257 74.8332Z" fill="#E0C492"/>
<path d="M62.0028 51.9608C62.4037 52.3076 62.9001 52.4806 63.3974 52.4806C63.8947 52.4806 64.392 52.3076 64.792 51.9608C82.1618 36.9071 92.9061 29.2888 92.9061 17.45C92.9061 8.08449 86.2757 0.32312 76.9609 0.32312C70.8436 0.32312 66.1592 3.84913 63.1421 9.14063C60.1317 3.86077 55.4523 0.32312 49.3258 0.32312C42.1948 0.32312 36.233 4.94435 34.1374 12.0953C33.8064 13.2238 34.4534 14.4064 35.5819 14.7373C36.7104 15.0683 37.8929 14.4213 38.2231 13.2928C39.774 8.0005 44.1316 4.58094 49.3258 4.58094C55.3991 4.58094 59.6594 9.9739 61.0906 14.9951C61.3459 15.9174 62.1858 16.5561 63.1421 16.5561C64.0993 16.5561 64.9384 15.9174 65.1937 14.9951C65.2228 14.8912 68.18 4.58094 76.9609 4.58094C83.6237 4.58094 88.6483 10.1128 88.6483 17.45C88.6483 26.9204 79.3909 33.7478 63.3958 47.5392C53.6502 39.1699 45.9088 33.2788 41.5088 27.5158C40.7952 26.5811 39.4597 26.4014 38.525 27.115C37.5902 27.8285 37.4114 29.164 38.1241 30.0996C43.0838 36.5953 51.4564 42.819 62.0028 51.9608Z" fill="#E0C492"/>
<path d="M35.9778 19.0783C34.8028 19.0783 33.8489 20.0322 33.8489 21.2072C33.8489 22.3823 34.8028 23.3361 35.9778 23.3361C37.1529 23.3361 38.1068 22.3823 38.1068 21.2072C38.1068 20.0322 37.1529 19.0783 35.9778 19.0783Z" fill="#E0C492"/>
</svg>