<svg xmlns:xlink="http://www.w3.org/1999/xlink" xmlns="http://www.w3.org/2000/svg" width="109" height="109" viewBox="0 0 109 109" fill="none">
<path d="M83.2778 64.3756H43.9314L65.6705 52.2604C67.9429 50.989 68.7638 48.1054 67.499 45.83L64.2588 40.0207C62.9849 37.7449 60.0985 36.9286 57.8276 38.1987L48.7847 43.2376C49.848 41.1036 50.5099 39.0111 50.7547 36.9789C51.1626 33.595 50.3947 30.5409 48.5341 28.1465C45.51 24.255 40.2296 22.9615 35.6927 25.0004C34.8884 25.3619 34.5295 26.3069 34.891 27.1114C35.2525 27.9155 36.1975 28.2746 37.002 27.9131C40.1905 26.48 43.8958 27.3818 46.0126 30.1059C49.0523 34.0176 47.8863 40.136 42.9057 46.5136L40.9773 47.5881L39.5818 45.0881C39.2235 44.4441 38.7584 43.8823 38.2112 43.4184C38.5504 41.3878 39.4958 38.7599 40.5411 37.0434C40.9997 36.2902 40.761 35.3079 40.0078 34.8493C39.2546 34.3906 38.2723 34.6296 37.8138 35.3826C36.6888 37.2299 35.714 39.7897 35.2237 42.0544C33.8864 41.8409 32.5285 42.0763 31.3338 42.7425L30.7818 43.0503C30.5627 38.4431 31.277 34.5873 32.8864 31.8065C33.3282 31.0433 33.0676 30.0665 32.3044 29.6248C31.5416 29.1835 30.5644 29.4436 30.1227 30.2068C27.9869 33.8971 27.1731 38.7936 27.6957 44.7707L25.7676 45.8456C17.6207 39.7895 9.64897 38.5513 4.30052 42.5636C0.428469 45.4681 -1.03026 50.6079 0.75334 55.0627C2.57313 59.6075 7.12345 62.375 13.3922 62.9594L4.13426 68.1182C1.86314 69.3847 1.04415 72.2661 2.30957 74.5428L5.54913 80.357C6.4124 81.9039 8.02568 82.777 9.68644 82.777C10.4643 82.777 11.2527 82.5854 11.9793 82.1819C11.9799 82.1817 11.9806 82.1813 11.9812 82.1809L22.4143 76.3666V102.373C22.4143 105.5 24.9586 108.043 28.0859 108.043H81.4819C84.6093 108.043 87.1537 105.5 87.1537 102.373V68.2504C87.1535 66.1138 85.4148 64.3756 83.2778 64.3756ZM30.0671 68.4462L25.3354 59.9604L39.7438 51.9317L44.4751 60.4166L37.2705 64.4318C37.0133 64.5007 36.7821 64.6319 36.5937 64.809L30.0671 68.4462ZM59.3847 40.9872C59.6202 40.8554 59.8758 40.7928 60.1285 40.7928C60.6667 40.7928 61.1902 41.0766 61.4714 41.5784L64.7091 47.3833C65.1195 48.1216 64.8513 49.0594 64.1138 49.4719L47.2646 58.8619L42.5335 50.3769L59.3847 40.9872ZM32.889 45.5322C33.3173 45.2933 33.7908 45.172 34.2719 45.172C34.5374 45.172 34.805 45.209 35.0685 45.2837C35.8096 45.4941 36.4215 45.9761 36.7925 46.6433L38.1874 49.142L23.78 57.1703L22.383 54.6639C22.108 54.1711 21.9892 53.6182 22.032 53.064C22.0335 53.0487 22.0354 53.0336 22.0364 53.0183C22.053 52.8416 22.0846 52.6649 22.1344 52.4901C22.3445 51.7514 22.8269 51.1408 23.4939 50.7699L32.889 45.5322ZM3.71784 53.876C2.47009 50.7595 3.4975 47.1585 6.21675 45.1188C10.1329 42.1813 16.1824 43.1159 22.6826 47.5659L21.9409 47.9794C20.7665 48.6323 19.8635 49.6363 19.3368 50.8527C17.2283 50.1887 15.3349 49.8243 12.6224 49.5273C11.7451 49.4319 10.9574 50.0642 10.8614 50.9407C10.7654 51.8174 11.3983 52.6057 12.2748 52.7017C15.2584 53.0283 17.0137 53.4347 18.8793 54.0599C18.9768 54.8095 19.2154 55.5406 19.5939 56.2191L20.9909 58.7254L19.2478 59.6969C11.324 60.5631 5.5289 58.3995 3.71784 53.876ZM10.4269 79.3918C9.69815 79.795 8.74163 79.5253 8.33799 78.8023L5.09993 72.9906C4.68947 72.2523 4.9541 71.3179 5.68921 70.9081L20.4576 62.6786C20.5045 62.6554 20.5498 62.6303 20.5937 62.6028L22.5461 61.5149L27.2778 70.0008L23.2601 72.24C23.2516 72.2444 23.2433 72.2493 23.2348 72.254L10.4269 79.3918ZM25.6077 102.374V74.5873L38.2012 67.5689H45.5636V81.7091C45.5636 82.5909 46.2785 83.3058 47.1603 83.3058C48.0421 83.3058 48.757 82.5909 48.757 81.7091V67.5689H60.8106V104.85H48.757V89.274C48.757 88.3922 48.0421 87.6773 47.1603 87.6773C46.2785 87.6773 45.5636 88.3922 45.5636 89.274V104.85H28.0859C26.7194 104.85 25.6077 103.739 25.6077 102.374ZM83.9601 102.374C83.9601 103.739 82.8484 104.85 81.4819 104.85H64.0042V67.5689H83.2778C83.6476 67.5689 83.9601 67.881 83.9601 68.2504V102.374Z" fill="#E0C492"/>
<path d="M77.4236 28.6037C77.4449 28.8 79.4712 48.3231 72.6353 55.7334C72.0373 56.3817 72.0782 57.3918 72.7262 57.9896C73.0332 58.2728 73.4213 58.4126 73.8086 58.4126C74.2388 58.4126 74.6678 58.2398 74.9826 57.8985C82.7917 49.4331 80.6917 29.1202 80.5985 28.2594C80.5035 27.3828 79.7163 26.75 78.8391 26.8439C77.9625 26.9393 77.3287 27.727 77.4236 28.6037Z" fill="#E0C492"/>
<path d="M92.0283 26.2308C89.3271 30.3668 88.469 34.0581 88.4336 34.2133C88.2386 35.0721 88.7762 35.925 89.6345 36.1217C89.7544 36.1489 89.8738 36.1621 89.9918 36.1621C90.7188 36.1621 91.3764 35.6614 91.5469 34.9231C91.5546 34.8899 92.3449 31.5496 94.7641 27.882C97.9475 23.0559 102.323 19.9496 107.77 18.6495C108.627 18.4449 109.157 17.5836 108.952 16.7258C108.747 15.8681 107.886 15.3389 107.028 15.5435C100.813 17.0271 95.6255 20.7227 92.0283 26.2308Z" fill="#E0C492"/>
<path d="M59.2754 17.4598C59.2809 17.4985 59.2881 17.5914 59.2739 17.7787L58.8979 22.4244C58.8445 22.917 58.7389 24.0198 59.639 24.7008C60.5544 25.3936 61.6297 24.9593 62.1051 24.7675L66.3723 22.989C66.4568 22.9617 66.6652 22.9609 66.7423 22.9847L71.0433 24.7739C71.3139 24.8833 71.7989 25.0792 72.3388 25.0792C72.7135 25.0792 73.1148 24.9848 73.489 24.7015C74.3866 24.0222 74.2816 22.9192 74.2282 22.4253L73.859 17.7862C73.8448 17.5992 73.8499 17.5043 73.8548 17.4621L76.9547 13.7265C77.3128 13.3199 78.0198 12.4967 77.6868 11.4292C77.3489 10.3463 76.2487 10.0731 75.7787 9.95647L71.0657 8.78749L68.587 4.64996C68.359 4.26526 67.7535 3.24381 66.5707 3.24062C66.5688 3.24062 66.5669 3.24062 66.5652 3.24062C65.3856 3.24062 64.7743 4.25866 64.544 4.64251C64.5438 4.64293 64.5436 4.64336 64.5434 4.64378L62.0838 8.7498L62.0615 8.7877L57.3451 9.95732C56.8763 10.0744 55.7782 10.3488 55.4414 11.4316C55.1093 12.4988 55.8402 13.3504 56.1723 13.7274L59.2754 17.4598ZM62.9822 11.8493C64.0469 11.5861 64.431 11.0588 64.7609 10.4955L66.5628 7.48566L68.3814 10.5211C68.7098 11.0727 69.0918 11.5893 70.1422 11.8489L73.6427 12.717L71.3884 15.4335C70.6474 16.3093 70.6176 17.2803 70.675 18.0342L70.9326 21.2693L67.9769 20.0396C67.1372 19.6849 66.0038 19.6839 65.1561 20.0366L62.1952 21.2705L62.4575 18.0289C62.5094 17.3461 62.493 16.3353 61.7524 15.4444L59.4844 12.7168L62.9822 11.8493Z" fill="#E0C492"/>
<path d="M108.177 50.4346C108.514 50.0561 109.246 49.207 108.915 48.1394C108.579 47.0528 107.475 46.7786 107.003 46.6615L102.297 45.4942L99.8135 41.3473C99.5831 40.9637 98.9719 39.9454 97.7923 39.9454C97.7904 39.9454 97.7885 39.9454 97.7868 39.9454C96.6082 39.9486 96.0027 40.9631 95.7728 41.3507L93.3086 45.4544L93.2852 45.4942L88.5784 46.6615C88.1071 46.7784 87.003 47.0526 86.6669 48.1392C86.3367 49.2068 87.0686 50.0558 87.4052 50.4341L90.5027 54.167C90.5076 54.2089 90.5129 54.3022 90.4991 54.4833L90.1227 59.1284C90.0727 59.6195 89.9703 60.7314 90.8727 61.4095C91.7862 62.0959 92.8569 61.6635 93.3301 61.4721L97.5977 59.6936C97.6846 59.6657 97.8979 59.6657 97.9731 59.6891L102.268 61.4785C102.539 61.5877 103.023 61.7836 103.563 61.7836C103.937 61.7836 104.336 61.6899 104.71 61.4093C105.612 60.7312 105.51 59.6195 105.46 59.1282L105.084 54.4908C105.07 54.3041 105.075 54.2091 105.08 54.1668L108.177 50.4346ZM102.614 52.1383C101.872 53.014 101.843 53.9852 101.9 54.7413L102.162 57.9752L99.2008 56.7412C98.3575 56.39 97.2243 56.3902 96.3813 56.7412L93.42 57.9752L93.6827 54.7335C93.7397 53.9852 93.7099 53.014 92.9786 52.15L90.7148 49.4216L94.2179 48.5528C95.2742 48.2888 95.6566 47.763 95.9855 47.2016L97.7936 44.189L99.5327 47.0924L99.5972 47.2016C99.9259 47.7632 100.308 48.2891 101.368 48.5535L104.868 49.4216L102.614 52.1383Z" fill="#E0C492"/>
<path d="M91.9666 16.9229C96.3711 16.9229 99.9544 13.3433 99.9544 8.94354C99.9544 4.54032 96.3711 0.958008 91.9666 0.958008C87.5621 0.958008 83.9787 4.54032 83.9787 8.94354C83.9787 13.3433 87.5621 16.9229 91.9666 16.9229ZM91.9666 4.15137C94.6102 4.15137 96.7611 6.30114 96.7611 8.94354C96.7611 11.5825 94.6102 13.7295 91.9666 13.7295C89.3229 13.7295 87.1723 11.5825 87.1723 8.94354C87.1721 6.30114 89.3229 4.15137 91.9666 4.15137Z" fill="#E0C492"/>
</svg>