<svg xmlns:xlink="http://www.w3.org/1999/xlink" xmlns="http://www.w3.org/2000/svg" width="85" height="100" viewBox="0 0 85 100" fill="none">
<path d="M84.5345 71.5401C84.5345 69.3302 83.5786 67.3395 82.0593 65.9602C83.5788 64.5819 84.5345 62.5928 84.5345 60.3844C84.5345 56.2303 81.1577 52.8508 77.0071 52.8508H53.1595C55.3006 47.0276 57.7867 37.2365 53.5254 30.7449C51.9527 28.3505 50.5494 26.8953 47.965 24.9787C47.1865 24.4005 45.364 23.0462 43.5091 23.8107C41.7304 24.5439 41.1953 26.671 40.9283 28.4398L40.9134 28.5371C40.3962 31.9373 39.4335 38.2662 37.1425 43.6635C34.5183 49.8457 31.0831 52.851 26.6403 52.851H22.5581C22.0673 49.7157 19.3465 47.309 16.0733 47.309H7.49905C3.88263 47.3088 0.94043 50.2514 0.94043 53.8682V64.1712C0.94043 65.2499 1.81485 66.1243 2.89356 66.1243C3.97228 66.1243 4.84669 65.2499 4.84669 64.1712V53.8682C4.84669 52.4053 6.03654 51.2151 7.49905 51.2151H16.0733C17.5389 51.2151 18.7311 52.4053 18.7311 53.8682V92.0134C18.7311 93.4763 17.5389 94.6664 16.0733 94.6664H7.49905C6.03654 94.6664 4.84669 93.4761 4.84669 92.0134V81.7103C4.84669 80.6316 3.97228 79.7572 2.89356 79.7572C1.81485 79.7572 0.94043 80.6316 0.94043 81.7103V92.0134C0.94043 95.6303 3.88263 98.5727 7.49905 98.5727H16.0733C19.3465 98.5727 22.0673 96.1662 22.5581 93.0308C22.5581 93.0308 28.5122 93.0299 28.9313 93.0607C28.9579 93.1074 28.9851 93.1554 29.0102 93.2C29.2534 93.6306 29.6208 94.2816 30.2632 95.1377C32.5107 98.1416 37.9679 100.001 41.7353 100.001H72.7116C76.4807 100.001 79.5469 96.9318 79.5469 93.1594C79.5469 92.0265 79.2684 90.9584 78.7788 90.0166C82.077 89.217 84.5345 86.239 84.5345 82.6958C84.5345 80.4874 83.5786 78.4984 82.0593 77.12C83.5786 75.7407 84.5345 73.7501 84.5345 71.5401ZM54.9752 96.0949H41.7355C38.7144 96.0949 34.6591 94.4926 33.3894 92.7955C32.898 92.1404 32.6286 91.6634 32.4122 91.28C31.1944 89.1226 30.1944 89.1199 26.894 89.1246H22.6378V56.7569H26.6407C32.7374 56.7569 37.4806 52.8651 40.7386 45.1895C43.2216 39.3394 44.2324 32.6943 44.7753 29.1242L44.7906 29.0248C44.8832 28.4111 44.9832 27.9966 45.0681 27.7224C45.2158 27.8146 45.4031 27.9412 45.6371 28.115C47.8601 29.7636 48.9404 30.8791 50.2603 32.8886C53.9267 38.474 50.7193 48.3655 49.1705 52.3575C48.9849 52.8346 48.4205 54.2866 49.2736 55.5336C50.1103 56.7569 51.6187 56.7569 52.1144 56.7569H54.4705C53.8767 57.8337 53.5381 59.07 53.5381 60.3842C53.5381 62.6132 54.5125 64.6179 56.0566 65.9975C54.5607 67.3753 53.6213 69.3497 53.6213 71.5399C53.6213 73.7499 54.5771 75.7405 56.0965 77.1198C54.5771 78.4982 53.6213 80.4872 53.6213 82.6956C53.6213 84.9759 54.6402 87.0212 56.2445 88.4041C55.0504 89.6355 54.3131 91.3125 54.3131 93.1594C54.3129 94.2096 54.551 95.2049 54.9752 96.0949ZM72.7118 96.0949H61.1483C59.533 96.0949 58.2191 94.7781 58.2191 93.1595C58.2191 91.5439 59.5332 90.2297 61.1483 90.2297H72.7118C74.327 90.2297 75.6409 91.5439 75.6409 93.1595C75.6409 94.7781 74.3268 96.0949 72.7118 96.0949ZM77.0071 86.3232H61.1483C59.1516 86.3232 57.5273 84.6958 57.5273 82.6958C57.5273 80.6986 59.1516 79.074 61.1483 79.074H77.0071C79.0038 79.074 80.6282 80.6988 80.6282 82.6958C80.6282 84.696 79.0038 86.3232 77.0071 86.3232ZM77.0071 75.1677H61.1483C59.1516 75.1677 57.5273 73.5403 57.5273 71.5401C57.5273 69.5399 59.1516 67.9126 61.1483 67.9126H77.0071C79.0038 67.9126 80.6282 69.5399 80.6282 71.5401C80.6282 73.5403 79.0038 75.1677 77.0071 75.1677ZM77.0071 64.0063H61.0652C59.0686 64.0063 57.4441 62.3815 57.4441 60.3844C57.4441 58.3842 59.0686 56.7571 61.0652 56.7571H77.0071C79.0038 56.7571 80.6282 58.3844 80.6282 60.3844C80.6282 62.3815 79.0038 64.0063 77.0071 64.0063Z" fill="#E0C492"/>
<path d="M43.2745 60.1548C42.2057 60.3014 41.4584 61.2866 41.6049 62.3554C42.0194 65.3757 41.4375 68.0196 39.9223 70.0013C38.0768 72.4148 34.8963 73.9294 30.4689 74.5031C29.3992 74.6415 28.6443 75.6212 28.783 76.691C28.9105 77.6755 29.7504 78.3933 30.7174 78.3933C30.801 78.3933 30.8857 78.388 30.9709 78.3769C36.4686 77.6646 40.5245 75.6449 43.0254 72.374C45.1868 69.547 46.0338 65.8991 45.4749 61.8243C45.3284 60.7557 44.3446 60.0083 43.2745 60.1548Z" fill="#E0C492"/>
<path d="M45.9371 14.8969C47.0156 14.8969 47.8902 14.0225 47.8902 12.9438V1.95411C47.8902 0.875394 47.0156 0.000976562 45.9371 0.000976562C44.8586 0.000976562 43.9839 0.875394 43.9839 1.95411V12.9438C43.9839 14.0225 44.8584 14.8969 45.9371 14.8969Z" fill="#E0C492"/>
<path d="M60.0459 19.1219C60.3781 19.3424 60.7533 19.4479 61.1242 19.4479C61.7566 19.4479 62.3773 19.141 62.7533 18.5746L68.809 9.45078C69.4055 8.55195 69.1606 7.33983 68.2617 6.74335C67.3631 6.14706 66.1506 6.39178 65.5543 7.29061L59.4986 16.4145C58.9023 17.3133 59.1472 18.5254 60.0459 19.1219Z" fill="#E0C492"/>
<path d="M29.1209 18.5756C29.4971 19.1416 30.1174 19.4481 30.7496 19.4481C31.1207 19.4481 31.4961 19.3424 31.8285 19.1217C32.727 18.5248 32.9715 17.3125 32.3746 16.4141L26.3133 7.29024C25.7162 6.3916 24.5043 6.14707 23.6057 6.74414C22.7072 7.34102 22.4627 8.55333 23.0596 9.45177L29.1209 18.5756Z" fill="#E0C492"/>
<path d="M2.89356 74.8994C3.97228 74.8994 4.84669 74.0195 4.84669 72.9408C4.84669 71.8621 3.97228 70.9877 2.89356 70.9877C1.81485 70.9877 0.94043 71.8621 0.94043 72.9408V72.952C0.94043 74.0307 1.81485 74.8994 2.89356 74.8994Z" fill="#E0C492"/>
</svg>